<?xml version="1.0" encoding="iso-8859-1"?>
<!-- Generator: Adobe Illustrator 16.0.0, SVG Export Plug-In . SVG Version: 6.00 Build 0)  -->
<!DOCTYPE svg PUBLIC "-//W3C//DTD SVG 1.1//EN" "http://www.w3.org/Graphics/SVG/1.1/DTD/svg11.dtd">
<svg version="1.1" id="Capa_1" xmlns="http://www.w3.org/2000/svg" xmlns:xlink="http://www.w3.org/1999/xlink" x="0px" y="0px"
	 width="122px" height="122px" viewBox="0 0 122 122" style="enable-background:new 0 0 122 122;" xml:space="preserve">
<g>
	<path d="M20,122h82c11,0,20-9,20-20V20c0-11-9-20-20-20H20C9,0,0,9,0,20v82C0,113,9,122,20,122z M14,20c0-3.3,2.7-6,6-6h82
		c3.3,0,6,2.7,6,6v82c0,3.3-2.7,6-6,6H20c-3.3,0-6-2.7-6-6V20z"/>
	<circle cx="61" cy="61.2" r="18"/>
</g>
</svg>
